<?xml version="1.0" standalone="no"?>
<!DOCTYPE svg PUBLIC "-//W3C//DTD SVG 20010904//EN"
 "http://www.w3.org/TR/2001/REC-SVG-20010904/DTD/svg10.dtd">
<svg version="1.0" xmlns="http://www.w3.org/2000/svg"
 width="221pt" height="110.pt" viewBox="0 90 221 40"
 preserveAspectRatio="xMidYMid meet">
<metadata>
Team TruCol wishes you the pleasantest of days!
</metadata>
<g transform="translate(0.000000,221) scale(.024000,-0.024000)"
fill="#02138C" stroke="none">
<path d="M5320 5424 c-214 -41 -410 -172 -522 -349 -92 -146 -127 -277 -123
-458 4 -131 26 -219 85 -337 110 -219 311 -373 551 -423 89 -19 316 -12 351
10 5 2 17 6 27 8 51 10 131 40 132 49 1 15 1 396 0 425 -1 23 -2 22 -40 -12
-92 -83 -188 -118 -316 -114 -102 3 -191 42 -266 117 -160 160 -157 456 6 609
24 23 47 41 51 41 4 0 15 6 23 14 36 32 136 56 227 53 76 -2 99 -7 155 -33 36
-18 87 -52 112 -76 26 -24 48 -39 49 -33 3 8 1 413 -1 438 -1 12 -63 36 -150
59 -92 24 -259 30 -351 12z"/>
<path d="M6720 5420 c-260 -53 -465 -209 -570 -435 -51 -109 -73 -201 -75
-320 -6 -224 72 -428 219 -579 104 -106 229 -177 381 -217 84 -22 295 -31 380
-17 249 43 474 195 579 392 14 27 30 54 34 60 8 10 45 130 58 186 3 14 7 72 9
130 11 388 -244 712 -627 796 -105 23 -284 25 -388 4z"/>
<path d="M3167 5402 l-99 -3 5 -522 c4 -584 7 -607 75 -747 66 -136 190 -228
359 -266 83 -19 276 -25 373 -12 258 35 413 173 475 423 16 61 18 139 22 598
l5 527 -59 1 c-192 2 -354 -1 -363 -6 -5 -3 -10 -2 -10 4 0 6 -11 6 -29 1 -16
-4 -32 -6 -35 -3 -7 8 -105 7 -113 0 -3 -3 -15 -2 -27 2 -11 5 -30 5 -41 1
-11 -4 -29 -4 -40 0 -11 4 -29 4 -40 0 -11 -4 -28 -3 -37 2 -10 5 -18 5 -18 0
0 -5 -17 -7 -37 -5 -57 6 -256 8 -366 5z"/>
<path d="M8040 5392 c-7 -3 -10 -264 -10 -758 l0 -754 430 0 430 0 0 165 0
165 -235 0 -235 0 0 593 0 592 -185 0 c-102 0 -190 -1 -195 -3z"/>
<path d="M380 5225 l0 -165 160 0 160 0 0 -590 0 -590 195 0 195 0 0 590 0
590 165 0 165 0 0 165 0 165 -520 0 -520 0 0 -165z"/>
<path d="M1630 4635 c0 -597 3 -755 13 -756 6 0 94 -2 194 -2 l183 -2 0 295
c1 226 3 290 12 275 6 -11 57 -90 113 -175 56 -85 128 -195 161 -245 32 -49
61 -94 63 -100 2 -5 11 -19 20 -30 15 -19 27 -20 246 -18 127 0 233 2 238 2 7
1 -73 108 -338 454 -49 66 -98 130 -108 143 -18 23 -18 23 10 30 49 12 117 46
162 82 86 69 130 168 136 308 9 196 -80 361 -238 439 -95 46 -172 54 -534 55
l-333 0 0 -755z"/>
</g>
</svg>
